<svg width="43" height="42" viewBox="0 0 43 42" fill="none" xmlns="http://www.w3.org/2000/svg">
<path fill-rule="evenodd" clip-rule="evenodd" d="M11.2373 21C11.2373 20.6519 11.3756 20.318 11.6217 20.0719C11.8679 19.8257 12.2017 19.6875 12.5498 19.6875H27.7564L22.1206 14.0542C21.8741 13.8077 21.7356 13.4735 21.7356 13.1249C21.7356 12.7764 21.8741 12.4422 22.1206 12.1957C22.367 11.9492 22.7013 11.8108 23.0498 11.8108C23.3983 11.8108 23.7326 11.9492 23.9791 12.1957L31.8541 20.0707C31.9763 20.1926 32.0733 20.3375 32.1394 20.4969C32.2056 20.6564 32.2397 20.8273 32.2397 21C32.2397 21.1726 32.2056 21.3435 32.1394 21.503C32.0733 21.6624 31.9763 21.8073 31.8541 21.9292L23.9791 29.8042C23.7326 30.0507 23.3983 30.1891 23.0498 30.1891C22.7013 30.1891 22.367 30.0507 22.1206 29.8042C21.8741 29.5577 21.7356 29.2235 21.7356 28.875C21.7356 28.5264 21.8741 28.1922 22.1206 27.9457L27.7564 22.3125H12.5498C12.2017 22.3125 11.8679 22.1742 11.6217 21.928C11.3756 21.6819 11.2373 21.348 11.2373 21Z" fill="black"/>
</svg>
