<svg width="43" height="42" viewBox="0 0 43 42" fill="none" xmlns="http://www.w3.org/2000/svg">
<path fill-rule="evenodd" clip-rule="evenodd" d="M32.2372 21C32.2372 21.348 32.0989 21.6819 31.8528 21.928C31.6066 22.1742 31.2728 22.3125 30.9247 22.3125H15.7181L21.354 27.9457C21.476 28.0677 21.5728 28.2126 21.6388 28.372C21.7049 28.5315 21.7389 28.7024 21.7389 28.875C21.7389 29.0475 21.7049 29.2184 21.6388 29.3779C21.5728 29.5373 21.476 29.6822 21.354 29.8042C21.2319 29.9262 21.0871 30.023 20.9276 30.0891C20.7682 30.1551 20.5973 30.1891 20.4247 30.1891C20.2521 30.1891 20.0812 30.1551 19.9218 30.0891C19.7624 30.023 19.6175 29.9262 19.4955 29.8042L11.6205 21.9292C11.4982 21.8073 11.4013 21.6624 11.3351 21.503C11.2689 21.3435 11.2349 21.1726 11.2349 21C11.2349 20.8273 11.2689 20.6564 11.3351 20.4969C11.4013 20.3375 11.4982 20.1926 11.6205 20.0707L19.4955 12.1957C19.7419 11.9492 20.0762 11.8108 20.4247 11.8108C20.7732 11.8108 21.1075 11.9492 21.354 12.1957C21.6004 12.4422 21.7389 12.7764 21.7389 13.1249C21.7389 13.4735 21.6004 13.8077 21.354 14.0542L15.7181 19.6875H30.9247C31.2728 19.6875 31.6066 19.8257 31.8528 20.0719C32.0989 20.318 32.2372 20.6519 32.2372 21Z" fill="black"/>
</svg>
