<svg width="41" height="41" viewBox="0 0 41 41" fill="none" xmlns="http://www.w3.org/2000/svg">
<rect x="0.5" y="0.5" width="37" height="37" rx="18.5" fill="#4716CF"/>
<path d="M19.23 15.2111C19.23 17.813 17.1638 19.9223 14.615 19.9223H10V15.2111C10 12.6092 12.0662 10.5 14.615 10.5C17.1638 10.5 19.23 12.6092 19.23 15.2111Z" fill="#F8F8F8"/>
<path d="M28.46 15.2111C28.46 12.6093 26.3937 10.5 23.8449 10.5H19.23V15.2111C19.23 17.8131 21.2962 19.9223 23.8449 19.9223C26.3937 19.9223 28.46 17.8131 28.46 15.2111Z" fill="#F8F8F8"/>
<path d="M10 24.6334C10 27.2353 12.0662 29.3445 14.615 29.3445H19.23V24.6334C19.23 22.0315 17.1638 19.9223 14.615 19.9223C12.0662 19.9223 10 22.0315 10 24.6334Z" fill="#F8F8F8"/>
<path d="M19.23 24.6334C19.23 22.0315 21.2962 19.9223 23.8449 19.9223H28.46V24.6334C28.46 27.2353 26.3937 29.3445 23.8449 29.3445C21.2962 29.3445 19.23 27.2353 19.23 24.6334Z" fill="#F8F8F8"/>
</svg>
