<svg width="49" height="48" viewBox="0 0 49 48" fill="none" xmlns="http://www.w3.org/2000/svg">
<path d="M24.5002 12.75C24.5002 18.9632 19.4634 24 13.2502 24H2.00024V12.75C2.00024 6.53679 7.03703 1.5 13.2502 1.5C19.4634 1.5 24.5002 6.53679 24.5002 12.75Z" fill="#F8F8F8"/>
<path d="M24.5002 35.25C24.5002 29.0368 29.537 24 35.7502 24H47.0002V35.25C47.0002 41.4632 41.9634 46.5 35.7502 46.5C29.537 46.5 24.5002 41.4632 24.5002 35.25Z" fill="#F8F8F8"/>
<path d="M2.00024 35.25C2.00024 41.4632 7.03703 46.5 13.2502 46.5H24.5002V35.25C24.5002 29.0368 19.4634 24 13.2502 24C7.03703 24 2.00024 29.0368 2.00024 35.25Z" fill="#F8F8F8"/>
<path d="M47.0002 12.75C47.0002 6.53679 41.9634 1.5 35.7502 1.5H24.5002V12.75C24.5002 18.9632 29.537 24 35.7502 24C41.9634 24 47.0002 18.9632 47.0002 12.75Z" fill="#F8F8F8"/>
</svg>
