<svg width="26" height="26" viewBox="0 0 26 26" fill="none" xmlns="http://www.w3.org/2000/svg">
<path d="M3.13281 6.94531H23.4453C23.8768 6.94531 24.2266 6.59556 24.2266 6.16406V4.21094C24.2266 3.77944 23.8768 3.42969 23.4453 3.42969H3.13281C2.70132 3.42969 2.35156 3.77944 2.35156 4.21094V6.16406C2.35156 6.59556 2.70132 6.94531 3.13281 6.94531ZM3.13281 14.7578H23.4453C23.8768 14.7578 24.2266 14.4081 24.2266 13.9766V12.0234C24.2266 11.5919 23.8768 11.2422 23.4453 11.2422H3.13281C2.70132 11.2422 2.35156 11.5919 2.35156 12.0234V13.9766C2.35156 14.4081 2.70132 14.7578 3.13281 14.7578ZM3.13281 22.5703H23.4453C23.8768 22.5703 24.2266 22.2206 24.2266 21.7891V19.8359C24.2266 19.4044 23.8768 19.0547 23.4453 19.0547H3.13281C2.70132 19.0547 2.35156 19.4044 2.35156 19.8359V21.7891C2.35156 22.2206 2.70132 22.5703 3.13281 22.5703Z" fill="#F6F4FB"/>
</svg>
