<svg width="32" height="32" viewBox="0 0 32 32" fill="none" xmlns="http://www.w3.org/2000/svg">
<path opacity="0.8" d="M16.0001 17.6062C20.4874 17.6062 24.125 14.0132 24.125 9.58098C24.125 5.14878 20.4874 1.55576 16.0001 1.55576C11.5129 1.55576 7.87524 5.14878 7.87524 9.58098C7.87524 14.0132 11.5129 17.6062 16.0001 17.6062Z" fill="#F8F8F8"/>
<path d="M28.9858 25.6426C28.9931 25.5284 28.9931 25.4139 28.9858 25.2997C28.9536 24.8776 28.8338 24.4654 28.6332 24.0861C27.8433 22.5427 25.629 21.8436 23.7813 21.4479C22.4631 21.1735 21.1237 20.997 19.7757 20.9202L18.3653 20.8147H17.7306H16.9407H15.0508H14.2609H13.6262L12.2158 20.9202C10.8678 20.997 9.52844 21.1735 8.21021 21.4479C6.36255 21.7909 4.14819 22.5032 3.35835 24.0861C3.15766 24.4654 3.0379 24.8776 3.00574 25.2997C2.99841 25.4139 2.99841 25.5284 3.00574 25.6426C2.99897 25.7569 2.99897 25.8714 3.00574 25.9856C3.0441 26.4041 3.16863 26.8117 3.37245 27.186C4.16229 28.7294 6.37666 29.4285 8.22431 29.8242C9.545 30.0858 10.8834 30.2621 12.2299 30.3519L13.6403 30.4442H13.9788H14.275H17.7447H18.0409H18.3794L19.7898 30.3519C21.1364 30.2621 22.4747 30.0858 23.7954 29.8242C25.6431 29.4681 27.8574 28.7689 28.6473 27.186C28.8416 26.7999 28.961 26.3845 28.9999 25.9592C29.0017 25.8535 28.997 25.7478 28.9858 25.6426Z" fill="#F8F8F8"/>
</svg>
