<svg width="51" height="51" viewBox="0 0 51 51" fill="none" xmlns="http://www.w3.org/2000/svg">
<path fill-rule="evenodd" clip-rule="evenodd" d="M45.5497 5.1875C45.9641 5.1875 46.3615 5.35212 46.6545 5.64515C46.9475 5.93817 47.1122 6.3356 47.1122 6.75V21.75C47.1122 22.776 46.9101 23.7919 46.5175 24.7397C46.1249 25.6876 45.5494 26.5488 44.8239 27.2743C44.0985 27.9997 43.2372 28.5752 42.2894 28.9678C41.3415 29.3604 40.3256 29.5625 39.2997 29.5625H8.69654L19.1559 40.0187C19.4493 40.3121 19.6141 40.7101 19.6141 41.125C19.6141 41.5399 19.4493 41.9379 19.1559 42.2313C18.8625 42.5246 18.4646 42.6895 18.0497 42.6895C17.6347 42.6895 17.2368 42.5246 16.9434 42.2313L3.81842 29.1063C3.67291 28.9611 3.55746 28.7887 3.47869 28.5989C3.39992 28.409 3.35937 28.2055 3.35938 28C3.35938 27.7945 3.39992 27.591 3.47869 27.4011C3.55746 27.2113 3.67291 27.0389 3.81842 26.8938L16.3184 14.3938C16.6118 14.1004 17.0097 13.9355 17.4247 13.9355C17.8396 13.9355 18.2375 14.1004 18.5309 14.3938C18.8243 14.6871 18.9891 15.0851 18.9891 15.5C18.9891 15.9149 18.8243 16.3129 18.5309 16.6062L8.69654 26.4375H39.2997C40.5429 26.4375 41.7352 25.9436 42.6142 25.0646C43.4933 24.1855 43.9872 22.9932 43.9872 21.75V6.75C43.9872 6.3356 44.1518 5.93817 44.4448 5.64515C44.7378 5.35212 45.1353 5.1875 45.5497 5.1875Z" fill="black"/>
</svg>
