<svg width="20" height="20" viewBox="0 0 20 20" fill="none" xmlns="http://www.w3.org/2000/svg">
<path d="M19.7341 18.4482L14.5748 13.2889C15.7356 11.8401 16.3668 10.0383 16.3639 8.18182C16.3639 3.66319 12.7009 1.52588e-05 8.18205 1.52588e-05C3.66342 1.52588e-05 0.000244141 3.66319 0.000244141 8.18182C0.000244141 12.7004 3.66342 16.3636 8.18205 16.3636C10.1139 16.3636 11.8893 15.6941 13.2891 14.5743L18.4484 19.7336C18.5327 19.8182 18.6329 19.8852 18.7432 19.9309C18.8535 19.9766 18.9717 20.0001 19.0911 20C19.2709 20 19.4467 19.9467 19.5962 19.8468C19.7457 19.7469 19.8622 19.605 19.931 19.4389C19.9998 19.2728 20.0179 19.09 19.9828 18.9136C19.9477 18.7373 19.8612 18.5753 19.7341 18.4482ZM8.18205 14.5454C4.66751 14.5454 1.81842 11.6964 1.81842 8.18182C1.81842 4.66728 4.66751 1.81819 8.18205 1.81819C11.6968 1.81819 14.5457 4.66728 14.5457 8.18182C14.5457 11.6964 11.6968 14.5454 8.18205 14.5454Z" fill="#010204"/>
</svg>
