<svg width="51" height="51" viewBox="0 0 51 51" fill="none" xmlns="http://www.w3.org/2000/svg">
<g clip-path="url(#clip0_736_871)">
<path d="M16.7518 5.46875C13.7754 6.28849 10.8193 7.18042 7.8862 8.14375C7.61817 8.23019 7.37988 8.39034 7.19861 8.60587C7.01734 8.82141 6.90041 9.08362 6.8612 9.3625C5.12995 22.3531 9.12995 31.8313 13.9018 38.075C15.9213 40.7458 18.3305 43.098 21.0487 45.0531C22.1299 45.8156 23.0862 46.3656 23.8393 46.7188C24.2143 46.8958 24.5195 47.0187 24.7549 47.0875C24.8587 47.119 24.9641 47.1451 25.0706 47.1656C25.176 47.145 25.2803 47.1189 25.3831 47.0875C25.6206 47.0167 25.9268 46.8937 26.3018 46.7188C27.0518 46.3656 28.0112 45.8125 29.0924 45.0531C31.8107 43.098 34.2199 40.7458 36.2393 38.075C41.0112 31.8344 45.0112 22.3531 43.2799 9.3625C43.2407 9.08362 43.1238 8.82141 42.9425 8.60587C42.7613 8.39034 42.523 8.23019 42.2549 8.14375C40.2206 7.47813 36.7862 6.39375 33.3893 5.47187C29.9206 4.53125 26.7299 3.83438 25.0706 3.83438C23.4143 3.83438 20.2206 4.52813 16.7518 5.46875ZM15.9206 2.25C19.3112 1.32813 22.9143 0.5 25.0706 0.5C27.2268 0.5 30.83 1.32813 34.2206 2.25C37.6893 3.1875 41.1862 4.29687 43.2424 4.96875C44.1022 5.25266 44.8644 5.77333 45.4415 6.47094C46.0186 7.16855 46.3872 8.01481 46.505 8.9125C48.3675 22.9031 44.0456 33.2719 38.8018 40.1313C36.5773 43.0648 33.926 45.6486 30.9362 47.7969C29.9035 48.542 28.8076 49.1955 27.6612 49.75C26.7862 50.1625 25.8456 50.5 25.0706 50.5C24.2956 50.5 23.3581 50.1625 22.4799 49.75C21.3335 49.1955 20.2377 48.542 19.2049 47.7969C16.2151 45.6486 13.5638 43.0648 11.3393 40.1313C6.09557 33.2719 1.7737 22.9031 3.6362 8.9125C3.75397 8.01481 4.12258 7.16855 4.69969 6.47094C5.27679 5.77333 6.03898 5.25266 6.8987 4.96875C9.88387 3.99065 12.892 3.08414 15.9206 2.25Z" fill="black"/>
<path d="M29.7581 20.8125C29.7586 21.7823 29.4583 22.7283 28.8986 23.5203C28.3389 24.3122 27.5474 24.9111 26.6331 25.2344L27.8362 31.4531C27.88 31.6793 27.8732 31.9124 27.8163 32.1356C27.7594 32.3589 27.6539 32.5668 27.5073 32.7445C27.3607 32.9222 27.1765 33.0652 26.9681 33.1634C26.7597 33.2616 26.5322 33.3125 26.3018 33.3125H23.8393C23.6092 33.3121 23.382 33.2608 23.174 33.1624C22.966 33.064 22.7822 32.9209 22.636 32.7433C22.4897 32.5656 22.3844 32.3579 22.3277 32.1349C22.2711 31.9118 22.2643 31.679 22.3081 31.4531L23.5081 25.2344C22.6979 24.9479 21.9821 24.4443 21.4389 23.7786C20.8956 23.1129 20.5458 22.3106 20.4276 21.4595C20.3094 20.6084 20.4275 19.7412 20.7689 18.9527C21.1102 18.1641 21.6618 17.4846 22.3632 16.9883C23.0647 16.492 23.8891 16.1981 24.7463 16.1387C25.6035 16.0792 26.4605 16.2565 27.2238 16.6512C27.987 17.046 28.6271 17.6429 29.074 18.3767C29.521 19.1106 29.7576 19.9532 29.7581 20.8125Z" fill="black"/>
</g>
<defs>
<clipPath id="clip0_736_871">
<rect width="50" height="50" fill="white" transform="translate(0.0705566 0.5)"/>
</clipPath>
</defs>
</svg>
