<svg width="51" height="51" viewBox="0 0 51 51" fill="none" xmlns="http://www.w3.org/2000/svg">
<g clip-path="url(#clip0_736_822)">
<path d="M25.4041 3.625C21.26 3.625 17.2858 5.2712 14.3555 8.20146C11.4253 11.1317 9.77905 15.106 9.77905 19.25V22.375H12.9041C13.7329 22.375 14.5277 22.7042 15.1138 23.2903C15.6998 23.8763 16.0291 24.6712 16.0291 25.5V34.875C16.0291 35.7038 15.6998 36.4987 15.1138 37.0847C14.5277 37.6708 13.7329 38 12.9041 38H9.77905C8.95025 38 8.1554 37.6708 7.56934 37.0847C6.98329 36.4987 6.65405 35.7038 6.65405 34.875V19.25C6.65405 16.7877 7.13904 14.3495 8.08131 12.0747C9.02359 9.79983 10.4047 7.73285 12.1458 5.99175C13.8869 4.25065 15.9539 2.86953 18.2287 1.92726C20.5036 0.984983 22.9418 0.5 25.4041 0.5C27.8663 0.5 30.3045 0.984983 32.5794 1.92726C34.8542 2.86953 36.9212 4.25065 38.6623 5.99175C40.4034 7.73285 41.7845 9.79983 42.7268 12.0747C43.6691 14.3495 44.1541 16.7877 44.1541 19.25V38C44.1541 40.072 43.331 42.0591 41.8658 43.5243C40.4007 44.9894 38.4136 45.8125 36.3416 45.8125H29.6728C29.3985 46.2875 29.0041 46.682 28.529 46.9563C28.054 47.2306 27.5151 47.375 26.9666 47.375H23.8416C23.0128 47.375 22.2179 47.0458 21.6318 46.4597C21.0458 45.8737 20.7166 45.0788 20.7166 44.25C20.7166 43.4212 21.0458 42.6263 21.6318 42.0403C22.2179 41.4542 23.0128 41.125 23.8416 41.125H26.9666C27.5151 41.125 28.054 41.2694 28.529 41.5437C29.0041 41.818 29.3985 42.2125 29.6728 42.6875H36.3416C37.5848 42.6875 38.777 42.1936 39.6561 41.3146C40.5352 40.4355 41.0291 39.2432 41.0291 38H37.9041C37.0753 38 36.2804 37.6708 35.6943 37.0847C35.1083 36.4987 34.7791 35.7038 34.7791 34.875V25.5C34.7791 24.6712 35.1083 23.8763 35.6943 23.2903C36.2804 22.7042 37.0753 22.375 37.9041 22.375H41.0291V19.25C41.0291 17.1981 40.6249 15.1663 39.8397 13.2706C39.0544 11.3749 37.9035 9.65237 36.4526 8.20146C35.0017 6.75054 33.2792 5.59961 31.3835 4.81438C29.4878 4.02915 27.456 3.625 25.4041 3.625Z" fill="black"/>
</g>
<defs>
<clipPath id="clip0_736_822">
<rect width="50" height="50" fill="white" transform="translate(0.404053 0.5)"/>
</clipPath>
</defs>
</svg>
