<svg width="51" height="51" viewBox="0 0 51 51" fill="none" xmlns="http://www.w3.org/2000/svg">
<g clip-path="url(#clip0_736_771)">
<path d="M36.1748 13C36.5892 13 36.9866 13.1646 37.2797 13.4576C37.5727 13.7507 37.7373 14.1481 37.7373 14.5625V16.125H40.9248C41.6271 16.1256 42.3203 16.2841 42.9532 16.5886C43.586 16.8931 44.1423 17.3359 44.5811 17.8844L49.2092 23.6656C49.8751 24.4975 50.2377 25.5313 50.2373 26.5969V33.3125C50.2373 34.5557 49.7434 35.748 48.8644 36.6271C47.9853 37.5061 46.793 38 45.5498 38H43.9873C43.9873 39.6576 43.3288 41.2473 42.1567 42.4194C40.9846 43.5915 39.3949 44.25 37.7373 44.25C36.0797 44.25 34.49 43.5915 33.3179 42.4194C32.1458 41.2473 31.4873 39.6576 31.4873 38H15.8623C15.8623 39.6576 15.2038 41.2473 14.0317 42.4194C12.8596 43.5915 11.2699 44.25 9.6123 44.25C7.9547 44.25 6.36499 43.5915 5.19289 42.4194C4.02079 41.2473 3.3623 39.6576 3.3623 38C2.5335 38 1.73865 37.6708 1.1526 37.0847C0.566545 36.4987 0.237305 35.7038 0.237305 34.875V31.75H34.6123V14.5625C34.6123 14.1481 34.7769 13.7507 35.07 13.4576C35.363 13.1646 35.7604 13 36.1748 13ZM9.6123 34.875C8.7835 34.875 7.98865 35.2042 7.4026 35.7903C6.81654 36.3763 6.4873 37.1712 6.4873 38C6.4873 38.8288 6.81654 39.6237 7.4026 40.2097C7.98865 40.7958 8.7835 41.125 9.6123 41.125C10.4411 41.125 11.236 40.7958 11.822 40.2097C12.4081 39.6237 12.7373 38.8288 12.7373 38C12.7373 37.1712 12.4081 36.3763 11.822 35.7903C11.236 35.2042 10.4411 34.875 9.6123 34.875ZM37.7373 34.875C36.9085 34.875 36.1136 35.2042 35.5276 35.7903C34.9415 36.3763 34.6123 37.1712 34.6123 38C34.6123 38.8288 34.9415 39.6237 35.5276 40.2097C36.1136 40.7958 36.9085 41.125 37.7373 41.125C38.5661 41.125 39.361 40.7958 39.947 40.2097C40.5331 39.6237 40.8623 38.8288 40.8623 38C40.8623 37.1712 40.5331 36.3763 39.947 35.7903C39.361 35.2042 38.5661 34.875 37.7373 34.875ZM43.1498 34.875H45.5498C45.9642 34.875 46.3616 34.7104 46.6547 34.4174C46.9477 34.1243 47.1123 33.7269 47.1123 33.3125V26.5938C47.1117 26.2392 46.9905 25.8953 46.7686 25.6188L42.1436 19.8375C41.9974 19.6545 41.812 19.5067 41.6011 19.405C41.3901 19.3033 41.159 19.2503 40.9248 19.25H37.7373V31.75C38.8344 31.75 39.9121 32.0388 40.8622 32.5874C41.8123 33.1359 42.6013 33.9249 43.1498 34.875Z" fill="black"/>
</g>
<defs>
<clipPath id="clip0_736_771">
<rect width="50" height="50" fill="white" transform="translate(0.237305 0.5)"/>
</clipPath>
</defs>
</svg>
