<svg width="35" height="36" viewBox="0 0 35 36" fill="none" xmlns="http://www.w3.org/2000/svg">
<path d="M15.0002 3.83319C13.3334 3.83319 11.8566 5.51078 11.667 7.16678L11.0938 12.1668H8.33384C7.50024 12.1668 6.66704 13 6.66704 13.8332L5.00024 30.5C5.00024 31.3332 5.83344 32.1668 6.66704 32.1668H28.3334C29.167 32.1668 30.0002 31.3332 30.0002 30.5L28.3334 13.8332C28.3334 13 27.5002 12.1668 26.667 12.1668H23.9066L23.3334 7.16678C23.1438 5.51078 21.667 3.83319 20.0002 3.83319H15.0002ZM15.0002 5.49999H20.0002C20.8334 5.49999 21.5722 6.33878 21.667 7.16678L22.2398 12.1668H12.7606L13.3334 7.16678C13.4282 6.33878 14.167 5.49999 15.0002 5.49999Z" fill="#F8F8F8"/>
</svg>
