<svg width="25" height="25" viewBox="0 0 25 25" fill="none" xmlns="http://www.w3.org/2000/svg">
<g clip-path="url(#clip0_743_2763)">
<path d="M8.36554 7.99844L11.778 1.2375C11.8442 1.10194 11.9467 0.987468 12.0742 0.906888C12.2017 0.826309 12.3491 0.782806 12.4999 0.78125C12.7859 0.78125 13.0718 0.932812 13.2265 1.2375L16.639 7.99844L24.2921 9.08594C24.4825 9.11675 24.6566 9.21187 24.7854 9.35544C24.9142 9.49902 24.9899 9.68238 24.9999 9.875C25.0106 10.0034 24.9923 10.1325 24.9463 10.2529C24.9003 10.3733 24.8279 10.4817 24.7343 10.5703L19.2296 15.8141L20.5265 23.2047C20.6484 23.8969 19.964 24.4391 19.3609 24.1297L12.4999 20.6047L5.64211 24.1297C5.57057 24.1674 5.49361 24.1937 5.41398 24.2078C4.87961 24.3016 4.37023 23.8109 4.47648 23.2047L5.77336 15.8141L0.270232 10.5703C0.184678 10.4894 0.116675 10.3917 0.0704432 10.2834C0.0242117 10.1751 0.000738911 10.0584 0.00148195 9.94062C0.00311831 9.77434 0.0489562 9.61148 0.134294 9.46875C0.195593 9.36551 0.279429 9.27746 0.379538 9.21117C0.479647 9.14488 0.593442 9.10207 0.712419 9.08594L8.36554 7.99844ZM12.4999 18.7922C12.626 18.7917 12.7504 18.8217 12.8624 18.8797L18.6218 21.8391L17.5374 15.6562C17.5111 15.5141 17.5205 15.3676 17.5647 15.2299C17.6088 15.0922 17.6864 14.9676 17.7905 14.8672L22.3327 10.5391L16.0015 9.63906C15.8706 9.61864 15.7465 9.56711 15.6397 9.48881C15.5328 9.41051 15.4463 9.30771 15.3874 9.18906L12.5015 3.47344L12.4999 3.47812V18.7922Z" fill="#4716CF"/>
</g>
<defs>
<clipPath id="clip0_743_2763">
<rect width="25" height="25" fill="white"/>
</clipPath>
</defs>
</svg>
