<svg width="21" height="20" viewBox="0 0 21 20" fill="none" xmlns="http://www.w3.org/2000/svg">
<path d="M20.5229 18.4482L15.3636 13.2889C16.5244 11.8401 17.1556 10.0383 17.1527 8.18182C17.1527 3.66319 13.4897 1.52588e-05 8.97087 1.52588e-05C4.45224 1.52588e-05 0.789062 3.66319 0.789062 8.18182C0.789062 12.7004 4.45224 16.3636 8.97087 16.3636C10.9027 16.3636 12.6781 15.6941 14.0779 14.5743L19.2372 19.7336C19.3215 19.8182 19.4217 19.8852 19.532 19.9309C19.6423 19.9766 19.7605 20.0001 19.8799 20C20.0597 20 20.2355 19.9467 20.385 19.8468C20.5345 19.7469 20.651 19.605 20.7198 19.4389C20.7886 19.2728 20.8067 19.09 20.7716 18.9136C20.7366 18.7373 20.65 18.5753 20.5229 18.4482ZM8.97087 14.5454C5.45633 14.5454 2.60724 11.6964 2.60724 8.18182C2.60724 4.66728 5.45633 1.81819 8.97087 1.81819C12.4856 1.81819 15.3345 4.66728 15.3345 8.18182C15.3345 11.6964 12.4856 14.5454 8.97087 14.5454Z" fill="#F6F4FB"/>
</svg>
